<?xml version="1.0" encoding="UTF-8" standalone="no"?>
<!DOCTYPE svg PUBLIC "-//W3C//DTD SVG 1.1//EN"
 "http://www.w3.org/Graphics/SVG/1.1/DTD/svg11.dtd">
<!-- Generated by graphviz version 2.43.0 (0)
 -->
<!-- Title: AST Hierarchy Pages: 1 -->
<svg width="1135pt" height="989pt"
 viewBox="0.00 0.00 1135.00 989.00" xmlns="http://www.w3.org/2000/svg" xmlns:xlink="http://www.w3.org/1999/xlink">
<g id="graph0" class="graph" transform="scale(1 1) rotate(0) translate(4 985)">
<title>AST Hierarchy</title>
<polygon fill="white" stroke="transparent" points="-4,4 -4,-985 1131,-985 1131,4 -4,4"/>
<!-- Action -->
<g id="node1" class="node">
<title>Action</title>
<g id="a_node1"><a xlink:href="https://bmw-software-engineering.github.io/trlc/manual/ast.html#trlc.ast.Action" xlink:title="An if or elseif part inside a conditional expression">
<text text-anchor="middle" x="160.5" y="-635.3" font-family="Times,serif" font-size="14.00" fill="#0969da">Action</text>
</a>
</g>
</g>
<!-- Node -->
<g id="node2" class="node">
<title>Node</title>
<g id="a_node2"><a xlink:href="https://bmw-software-engineering.github.io/trlc/manual/ast.html#trlc.ast.Node" xlink:title="Base class for all AST items.">
<text text-anchor="middle" x="27" y="-176.3" font-family="Times,serif" font-size="14.00" fill="#0969da">Node</text>
</a>
</g>
</g>
<!-- Node&#45;&gt;Action -->
<g id="edge1" class="edge">
<title>Node&#45;&gt;Action</title>
<path fill="none" stroke="black" d="M28.24,-198.34C29.55,-272.13 37.92,-546.45 90,-612 97.41,-621.33 108.48,-627.44 119.61,-631.44"/>
<polygon fill="black" stroke="black" points="118.74,-634.83 129.32,-634.44 120.8,-628.14 118.74,-634.83"/>
</g>
<!-- Expression -->
<g id="node4" class="node">
<title>Expression</title>
<g id="a_node4"><a xlink:href="https://bmw-software-engineering.github.io/trlc/manual/ast.html#trlc.ast.Expression" xlink:title="Abstract base class for all expressions.">
<text text-anchor="middle" x="160.5" y="-581.3" font-family="Times,serif" font-size="14.00" fill="#0969da">Expression</text>
</a>
</g>
</g>
<!-- Node&#45;&gt;Expression -->
<g id="edge26" class="edge">
<title>Node&#45;&gt;Expression</title>
<path fill="none" stroke="black" d="M33.91,-198.19C54.81,-262.56 125.36,-479.86 150.51,-557.3"/>
<polygon fill="black" stroke="black" points="147.19,-558.43 153.61,-566.86 153.85,-556.27 147.19,-558.43"/>
</g>
<!-- Entity -->
<g id="node15" class="node">
<title>Entity</title>
<g id="a_node15"><a xlink:href="https://bmw-software-engineering.github.io/trlc/manual/ast.html#trlc.ast.Entity" xlink:title="Base class for all entities.">
<text text-anchor="middle" x="160.5" y="-230.3" font-family="Times,serif" font-size="14.00" fill="#0969da">Entity</text>
</a>
</g>
</g>
<!-- Node&#45;&gt;Entity -->
<g id="edge22" class="edge">
<title>Node&#45;&gt;Entity</title>
<path fill="none" stroke="black" d="M54.15,-191.66C65.17,-196.51 78.17,-202.13 90,-207 99.89,-211.07 110.63,-215.33 120.65,-219.22"/>
<polygon fill="black" stroke="black" points="119.39,-222.49 129.98,-222.83 121.91,-215.96 119.39,-222.49"/>
</g>
<!-- Check -->
<g id="node19" class="node">
<title>Check</title>
<g id="a_node19"><a xlink:href="https://bmw-software-engineering.github.io/trlc/manual/ast.html#trlc.ast.Check" xlink:title="User defined check">
<text text-anchor="middle" x="160.5" y="-176.3" font-family="Times,serif" font-size="14.00" fill="#0969da">Check</text>
</a>
</g>
</g>
<!-- Node&#45;&gt;Check -->
<g id="edge14" class="edge">
<title>Node&#45;&gt;Check</title>
<path fill="none" stroke="black" d="M54.29,-180C73.1,-180 98.75,-180 120.01,-180"/>
<polygon fill="black" stroke="black" points="120.04,-183.5 130.04,-180 120.04,-176.5 120.04,-183.5"/>
</g>
<!-- Check_Block -->
<g id="node20" class="node">
<title>Check_Block</title>
<g id="a_node20"><a xlink:href="https://bmw-software-engineering.github.io/trlc/manual/ast.html#trlc.ast.Check_Block" xlink:title="Node representing check blocks">
<text text-anchor="middle" x="160.5" y="-122.3" font-family="Times,serif" font-size="14.00" fill="#0969da">Check_Block</text>
</a>
</g>
</g>
<!-- Node&#45;&gt;Check_Block -->
<g id="edge15" class="edge">
<title>Node&#45;&gt;Check_Block</title>
<path fill="none" stroke="black" d="M54.15,-168.34C65.17,-163.49 78.17,-157.87 90,-153 94.15,-151.29 98.45,-149.55 102.79,-147.81"/>
<polygon fill="black" stroke="black" points="104.29,-150.99 112.29,-144.05 101.71,-144.48 104.29,-150.99"/>
</g>
<!-- Compilation_Unit -->
<g id="node21" class="node">
<title>Compilation_Unit</title>
<g id="a_node21"><a xlink:href="https://bmw-software-engineering.github.io/trlc/manual/ast.html#trlc.ast.Compilation_Unit" xlink:title="Special node to represent the concrete file structure">
<text text-anchor="middle" x="160.5" y="-68.3" font-family="Times,serif" font-size="14.00" fill="#0969da">Compilation_Unit</text>
</a>
</g>
</g>
<!-- Node&#45;&gt;Compilation_Unit -->
<g id="edge16" class="edge">
<title>Node&#45;&gt;Compilation_Unit</title>
<path fill="none" stroke="black" d="M37.86,-161.89C48.56,-143.74 67.2,-116.12 90,-99 91.81,-97.64 93.69,-96.34 95.64,-95.1"/>
<polygon fill="black" stroke="black" points="97.54,-98.05 104.47,-90.03 94.05,-91.98 97.54,-98.05"/>
</g>
<!-- Separator -->
<g id="node44" class="node">
<title>Separator</title>
<g id="a_node44"><a xlink:href="https://bmw-software-engineering.github.io/trlc/manual/ast.html#trlc.ast.Separator" xlink:title="User&#45;defined syntactic separator">
<text text-anchor="middle" x="160.5" y="-14.3" font-family="Times,serif" font-size="14.00" fill="#0969da">Separator</text>
</a>
</g>
</g>
<!-- Node&#45;&gt;Separator -->
<g id="edge41" class="edge">
<title>Node&#45;&gt;Separator</title>
<path fill="none" stroke="black" d="M31.76,-161.69C38.54,-133.04 55.45,-77.53 90,-45 95,-40.29 100.92,-36.37 107.15,-33.12"/>
<polygon fill="black" stroke="black" points="108.84,-36.2 116.45,-28.82 105.9,-29.84 108.84,-36.2"/>
</g>
<!-- Array_Aggregate -->
<g id="node3" class="node">
<title>Array_Aggregate</title>
<g id="a_node3"><a xlink:href="https://bmw-software-engineering.github.io/trlc/manual/ast.html#trlc.ast.Array_Aggregate" xlink:title="Instances of array types">
<text text-anchor="middle" x="364" y="-932.3" font-family="Times,serif" font-size="14.00" fill="#0969da">Array_Aggregate</text>
</a>
</g>
</g>
<!-- Expression&#45;&gt;Array_Aggregate -->
<g id="edge2" class="edge">
<title>Expression&#45;&gt;Array_Aggregate</title>
<path fill="none" stroke="black" d="M208.74,-595.39C217.28,-599.28 225.28,-604.64 231,-612 312.57,-717.01 180.47,-808.04 267,-909 272.23,-915.1 278.72,-919.88 285.83,-923.61"/>
<polygon fill="black" stroke="black" points="284.59,-926.88 295.14,-927.8 287.46,-920.5 284.59,-926.88"/>
</g>
<!-- Binary_Expression -->
<g id="node7" class="node">
<title>Binary_Expression</title>
<g id="a_node7"><a xlink:href="https://bmw-software-engineering.github.io/trlc/manual/ast.html#trlc.ast.Binary_Expression" xlink:title="Expression with two operands">
<text text-anchor="middle" x="364" y="-878.3" font-family="Times,serif" font-size="14.00" fill="#0969da">Binary_Expression</text>
</a>
</g>
</g>
<!-- Expression&#45;&gt;Binary_Expression -->
<g id="edge4" class="edge">
<title>Expression&#45;&gt;Binary_Expression</title>
<path fill="none" stroke="black" d="M208.59,-595.51C217.14,-599.39 225.19,-604.72 231,-612 299.11,-697.33 194.86,-773.05 267,-855 270.72,-859.22 275.04,-862.81 279.75,-865.85"/>
<polygon fill="black" stroke="black" points="278.16,-868.97 288.61,-870.76 281.56,-862.85 278.16,-868.97"/>
</g>
<!-- Literal -->
<g id="node9" class="node">
<title>Literal</title>
<g id="a_node9"><a xlink:href="https://bmw-software-engineering.github.io/trlc/manual/ast.html#trlc.ast.Literal" xlink:title="Abstract base for all Literals">
<text text-anchor="middle" x="364" y="-824.3" font-family="Times,serif" font-size="14.00" fill="#0969da">Literal</text>
</a>
</g>
</g>
<!-- Expression&#45;&gt;Literal -->
<g id="edge30" class="edge">
<title>Expression&#45;&gt;Literal</title>
<path fill="none" stroke="black" d="M208.72,-595.86C217.16,-599.71 225.12,-604.94 231,-612 285.71,-677.72 209.19,-737.99 267,-801 280.89,-816.14 302.53,-823.04 321.75,-826.1"/>
<polygon fill="black" stroke="black" points="321.46,-829.59 331.82,-827.39 322.35,-822.64 321.46,-829.59"/>
</g>
<!-- Conditional_Expression -->
<g id="node26" class="node">
<title>Conditional_Expression</title>
<g id="a_node26"><a xlink:href="https://bmw-software-engineering.github.io/trlc/manual/ast.html#trlc.ast.Conditional_Expression" xlink:title="A conditional expression">
<text text-anchor="middle" x="364" y="-770.3" font-family="Times,serif" font-size="14.00" fill="#0969da">Conditional_Expression</text>
</a>
</g>
</g>
<!-- Expression&#45;&gt;Conditional_Expression -->
<g id="edge20" class="edge">
<title>Expression&#45;&gt;Conditional_Expression</title>
<path fill="none" stroke="black" d="M208.68,-596.36C217.02,-600.17 224.95,-605.25 231,-612 272.43,-658.26 223.39,-702.79 267,-747 267.92,-747.94 268.88,-748.84 269.86,-749.71"/>
<polygon fill="black" stroke="black" points="267.79,-752.54 277.86,-755.83 272.04,-746.97 267.79,-752.54"/>
</g>
<!-- Field_Access_Expression -->
<g id="node31" class="node">
<title>Field_Access_Expression</title>
<g id="a_node31"><a xlink:href="https://bmw-software-engineering.github.io/trlc/manual/ast.html#trlc.ast.Field_Access_Expression" xlink:title="Tuple field access">
<text text-anchor="middle" x="364" y="-716.3" font-family="Times,serif" font-size="14.00" fill="#0969da">Field_Access_Expression</text>
</a>
</g>
</g>
<!-- Expression&#45;&gt;Field_Access_Expression -->
<g id="edge27" class="edge">
<title>Expression&#45;&gt;Field_Access_Expression</title>
<path fill="none" stroke="black" d="M208.59,-597.47C216.74,-601.17 224.63,-605.93 231,-612 259.51,-639.18 237.21,-667.22 267,-693 268.35,-694.17 269.75,-695.29 271.19,-696.36"/>
<polygon fill="black" stroke="black" points="269.54,-699.46 279.83,-701.97 273.35,-693.59 269.54,-699.46"/>
</g>
<!-- Implicit_Null -->
<g id="node32" class="node">
<title>Implicit_Null</title>
<g id="a_node32"><a xlink:href="https://bmw-software-engineering.github.io/trlc/manual/ast.html#trlc.ast.Implicit_Null" xlink:title="Synthesised null values">
<text text-anchor="middle" x="364" y="-662.3" font-family="Times,serif" font-size="14.00" fill="#0969da">Implicit_Null</text>
</a>
</g>
</g>
<!-- Expression&#45;&gt;Implicit_Null -->
<g id="edge28" class="edge">
<title>Expression&#45;&gt;Implicit_Null</title>
<path fill="none" stroke="black" d="M208.66,-601.3C216.29,-604.51 223.98,-608.1 231,-612 248.48,-621.71 249.07,-630.14 267,-639 277.32,-644.1 288.77,-648.37 300.04,-651.9"/>
<polygon fill="black" stroke="black" points="299.3,-655.33 309.88,-654.82 301.29,-648.62 299.3,-655.33"/>
</g>
<!-- Name_Reference -->
<g id="node34" class="node">
<title>Name_Reference</title>
<g id="a_node34"><a xlink:href="https://bmw-software-engineering.github.io/trlc/manual/ast.html#trlc.ast.Name_Reference" xlink:title="Reference to a name">
<text text-anchor="middle" x="364" y="-608.3" font-family="Times,serif" font-size="14.00" fill="#0969da">Name_Reference</text>
</a>
</g>
</g>
<!-- Expression&#45;&gt;Name_Reference -->
<g id="edge31" class="edge">
<title>Expression&#45;&gt;Name_Reference</title>
<path fill="none" stroke="black" d="M208.74,-591.33C231.54,-594.39 259.49,-598.13 285.3,-601.59"/>
<polygon fill="black" stroke="black" points="285.07,-605.09 295.45,-602.95 286,-598.15 285.07,-605.09"/>
</g>
<!-- Quantified_Expression -->
<g id="node37" class="node">
<title>Quantified_Expression</title>
<g id="a_node37"><a xlink:href="https://bmw-software-engineering.github.io/trlc/manual/ast.html#trlc.ast.Quantified_Expression" xlink:title="A quantified expression">
<text text-anchor="middle" x="364" y="-554.3" font-family="Times,serif" font-size="14.00" fill="#0969da">Quantified_Expression</text>
</a>
</g>
</g>
<!-- Expression&#45;&gt;Quantified_Expression -->
<g id="edge34" class="edge">
<title>Expression&#45;&gt;Quantified_Expression</title>
<path fill="none" stroke="black" d="M208.74,-578.67C225.76,-576.39 245.64,-573.73 265.37,-571.08"/>
<polygon fill="black" stroke="black" points="265.89,-574.54 275.34,-569.75 264.96,-567.61 265.89,-574.54"/>
</g>
<!-- Range_Test -->
<g id="node39" class="node">
<title>Range_Test</title>
<g id="a_node39"><a xlink:href="https://bmw-software-engineering.github.io/trlc/manual/ast.html#trlc.ast.Range_Test" xlink:title="Range membership test">
<text text-anchor="middle" x="364" y="-500.3" font-family="Times,serif" font-size="14.00" fill="#0969da">Range_Test</text>
</a>
</g>
</g>
<!-- Expression&#45;&gt;Range_Test -->
<g id="edge36" class="edge">
<title>Expression&#45;&gt;Range_Test</title>
<path fill="none" stroke="black" d="M193.05,-566.75C213.63,-555.39 241.33,-541.06 267,-531 278.96,-526.31 292.04,-522.08 304.6,-518.42"/>
<polygon fill="black" stroke="black" points="305.86,-521.7 314.53,-515.62 303.95,-514.97 305.86,-521.7"/>
</g>
<!-- Record_Reference -->
<g id="node41" class="node">
<title>Record_Reference</title>
<g id="a_node41"><a xlink:href="https://bmw-software-engineering.github.io/trlc/manual/ast.html#trlc.ast.Record_Reference" xlink:title="Reference to another record object">
<text text-anchor="middle" x="364" y="-446.3" font-family="Times,serif" font-size="14.00" fill="#0969da">Record_Reference</text>
</a>
</g>
</g>
<!-- Expression&#45;&gt;Record_Reference -->
<g id="edge38" class="edge">
<title>Expression&#45;&gt;Record_Reference</title>
<path fill="none" stroke="black" d="M174.35,-566.85C192.34,-542.76 227.33,-500.55 267,-477 271.49,-474.33 276.26,-471.92 281.17,-469.74"/>
<polygon fill="black" stroke="black" points="282.83,-472.84 290.77,-465.82 280.18,-466.36 282.83,-472.84"/>
</g>
<!-- Tuple_Aggregate -->
<g id="node46" class="node">
<title>Tuple_Aggregate</title>
<g id="a_node46"><a xlink:href="https://bmw-software-engineering.github.io/trlc/manual/ast.html#trlc.ast.Tuple_Aggregate" xlink:title="Instances of a tuple">
<text text-anchor="middle" x="364" y="-392.3" font-family="Times,serif" font-size="14.00" fill="#0969da">Tuple_Aggregate</text>
</a>
</g>
</g>
<!-- Expression&#45;&gt;Tuple_Aggregate -->
<g id="edge43" class="edge">
<title>Expression&#45;&gt;Tuple_Aggregate</title>
<path fill="none" stroke="black" d="M168.25,-566.84C181.69,-533.21 215.08,-461.17 267,-423 272.62,-418.87 278.86,-415.37 285.37,-412.4"/>
<polygon fill="black" stroke="black" points="287.14,-415.46 295.07,-408.43 284.49,-408.98 287.14,-415.46"/>
</g>
<!-- Unary_Expression -->
<g id="node48" class="node">
<title>Unary_Expression</title>
<g id="a_node48"><a xlink:href="https://bmw-software-engineering.github.io/trlc/manual/ast.html#trlc.ast.Unary_Expression" xlink:title="Expression with only one operand">
<text text-anchor="middle" x="364" y="-338.3" font-family="Times,serif" font-size="14.00" fill="#0969da">Unary_Expression</text>
</a>
</g>
</g>
<!-- Expression&#45;&gt;Unary_Expression -->
<g id="edge47" class="edge">
<title>Expression&#45;&gt;Unary_Expression</title>
<path fill="none" stroke="black" d="M165.1,-566.82C174.29,-525.25 202.59,-422.74 267,-369 271.32,-365.4 276.09,-362.27 281.13,-359.56"/>
<polygon fill="black" stroke="black" points="282.92,-362.59 290.44,-355.12 279.91,-356.27 282.92,-362.59"/>
</g>
<!-- Array_Type -->
<g id="node5" class="node">
<title>Array_Type</title>
<g id="a_node5"><a xlink:href="https://bmw-software-engineering.github.io/trlc/manual/ast.html#trlc.ast.Array_Type" xlink:title="Anonymous array type.">
<text text-anchor="middle" x="599.5" y="-392.3" font-family="Times,serif" font-size="14.00" fill="#0969da">Array_Type</text>
</a>
</g>
</g>
<!-- Type -->
<g id="node6" class="node">
<title>Type</title>
<g id="a_node6"><a xlink:href="https://bmw-software-engineering.github.io/trlc/manual/ast.html#trlc.ast.Type" xlink:title="Abstract base class for all types.">
<text text-anchor="middle" x="364" y="-284.3" font-family="Times,serif" font-size="14.00" fill="#0969da">Type</text>
</a>
</g>
</g>
<!-- Type&#45;&gt;Array_Type -->
<g id="edge3" class="edge">
<title>Type&#45;&gt;Array_Type</title>
<path fill="none" stroke="black" d="M391.19,-290.38C411.81,-293.36 440.41,-300.04 461,-315 484.33,-331.96 473.55,-352.21 497,-369 509.77,-378.14 525.44,-384.19 540.61,-388.19"/>
<polygon fill="black" stroke="black" points="539.93,-391.63 550.47,-390.53 541.55,-384.82 539.93,-391.63"/>
</g>
<!-- Builtin_Type -->
<g id="node11" class="node">
<title>Builtin_Type</title>
<g id="a_node11"><a xlink:href="https://bmw-software-engineering.github.io/trlc/manual/ast.html#trlc.ast.Builtin_Type" xlink:title="Abstract base class for all builtin types.">
<text text-anchor="middle" x="599.5" y="-338.3" font-family="Times,serif" font-size="14.00" fill="#0969da">Builtin_Type</text>
</a>
</g>
</g>
<!-- Type&#45;&gt;Builtin_Type -->
<g id="edge13" class="edge">
<title>Type&#45;&gt;Builtin_Type</title>
<path fill="none" stroke="black" d="M391.33,-294.09C426.3,-302.18 489.14,-316.71 536.47,-327.65"/>
<polygon fill="black" stroke="black" points="535.79,-331.09 546.32,-329.93 537.36,-324.27 535.79,-331.09"/>
</g>
<!-- Concrete_Type -->
<g id="node25" class="node">
<title>Concrete_Type</title>
<g id="a_node25"><a xlink:href="https://bmw-software-engineering.github.io/trlc/manual/ast.html#trlc.ast.Concrete_Type" xlink:title="Abstract base class for all non&#45;anonymous types.">
<text text-anchor="middle" x="599.5" y="-284.3" font-family="Times,serif" font-size="14.00" fill="#0969da">Concrete_Type</text>
</a>
</g>
</g>
<!-- Type&#45;&gt;Concrete_Type -->
<g id="edge19" class="edge">
<title>Type&#45;&gt;Concrete_Type</title>
<path fill="none" stroke="black" d="M391.33,-288C424.26,-288 481.93,-288 528.07,-288"/>
<polygon fill="black" stroke="black" points="528.33,-291.5 538.33,-288 528.33,-284.5 528.33,-291.5"/>
</g>
<!-- Boolean_Literal -->
<g id="node8" class="node">
<title>Boolean_Literal</title>
<g id="a_node8"><a xlink:href="https://bmw-software-engineering.github.io/trlc/manual/ast.html#trlc.ast.Boolean_Literal" xlink:title="Boolean values">
<text text-anchor="middle" x="599.5" y="-959.3" font-family="Times,serif" font-size="14.00" fill="#0969da">Boolean_Literal</text>
</a>
</g>
</g>
<!-- Literal&#45;&gt;Boolean_Literal -->
<g id="edge5" class="edge">
<title>Literal&#45;&gt;Boolean_Literal</title>
<path fill="none" stroke="black" d="M396.32,-830.02C416.83,-832.84 443.06,-839.48 461,-855 490.79,-880.78 467.03,-910.43 497,-936 505.34,-943.11 515.35,-948.37 525.8,-952.26"/>
<polygon fill="black" stroke="black" points="524.89,-955.65 535.48,-955.46 527.09,-949 524.89,-955.65"/>
</g>
<!-- Decimal_Literal -->
<g id="node27" class="node">
<title>Decimal_Literal</title>
<g id="a_node27"><a xlink:href="https://bmw-software-engineering.github.io/trlc/manual/ast.html#trlc.ast.Decimal_Literal" xlink:title="Decimal literals">
<text text-anchor="middle" x="599.5" y="-905.3" font-family="Times,serif" font-size="14.00" fill="#0969da">Decimal_Literal</text>
</a>
</g>
</g>
<!-- Literal&#45;&gt;Decimal_Literal -->
<g id="edge21" class="edge">
<title>Literal&#45;&gt;Decimal_Literal</title>
<path fill="none" stroke="black" d="M396.33,-833.74C415.63,-838.02 440.51,-844.88 461,-855 478.93,-863.86 479.01,-873.27 497,-882 505.98,-886.36 515.76,-890.09 525.59,-893.26"/>
<polygon fill="black" stroke="black" points="524.83,-896.68 535.41,-896.24 526.86,-889.98 524.83,-896.68"/>
</g>
<!-- Enumeration_Literal -->
<g id="node28" class="node">
<title>Enumeration_Literal</title>
<g id="a_node28"><a xlink:href="https://bmw-software-engineering.github.io/trlc/manual/ast.html#trlc.ast.Enumeration_Literal" xlink:title="Enumeration values">
<text text-anchor="middle" x="599.5" y="-851.3" font-family="Times,serif" font-size="14.00" fill="#0969da">Enumeration_Literal</text>
</a>
</g>
</g>
<!-- Literal&#45;&gt;Enumeration_Literal -->
<g id="edge23" class="edge">
<title>Literal&#45;&gt;Enumeration_Literal</title>
<path fill="none" stroke="black" d="M396.01,-831.59C424.37,-834.86 467.77,-839.88 507.13,-844.43"/>
<polygon fill="black" stroke="black" points="506.97,-847.94 517.3,-845.61 507.77,-840.99 506.97,-847.94"/>
</g>
<!-- Integer_Literal -->
<g id="node33" class="node">
<title>Integer_Literal</title>
<g id="a_node33"><a xlink:href="https://bmw-software-engineering.github.io/trlc/manual/ast.html#trlc.ast.Integer_Literal" xlink:title="Integer literals">
<text text-anchor="middle" x="599.5" y="-797.3" font-family="Times,serif" font-size="14.00" fill="#0969da">Integer_Literal</text>
</a>
</g>
</g>
<!-- Literal&#45;&gt;Integer_Literal -->
<g id="edge29" class="edge">
<title>Literal&#45;&gt;Integer_Literal</title>
<path fill="none" stroke="black" d="M396.01,-824.41C429.38,-820.56 483.6,-814.29 527.53,-809.21"/>
<polygon fill="black" stroke="black" points="528.06,-812.67 537.6,-808.04 527.26,-805.71 528.06,-812.67"/>
</g>
<!-- Null_Literal -->
<g id="node35" class="node">
<title>Null_Literal</title>
<g id="a_node35"><a xlink:href="https://bmw-software-engineering.github.io/trlc/manual/ast.html#trlc.ast.Null_Literal" xlink:title="The null literal">
<text text-anchor="middle" x="599.5" y="-743.3" font-family="Times,serif" font-size="14.00" fill="#0969da">Null_Literal</text>
</a>
</g>
</g>
<!-- Literal&#45;&gt;Null_Literal -->
<g id="edge32" class="edge">
<title>Literal&#45;&gt;Null_Literal</title>
<path fill="none" stroke="black" d="M396.33,-822.26C415.63,-817.98 440.51,-811.12 461,-801 478.93,-792.14 479.01,-782.73 497,-774 510.13,-767.63 524.97,-762.6 539.17,-758.7"/>
<polygon fill="black" stroke="black" points="540.07,-762.09 548.87,-756.18 538.31,-755.31 540.07,-762.09"/>
</g>
<!-- String_Literal -->
<g id="node45" class="node">
<title>String_Literal</title>
<g id="a_node45"><a xlink:href="https://bmw-software-engineering.github.io/trlc/manual/ast.html#trlc.ast.String_Literal" xlink:title="String literals">
<text text-anchor="middle" x="599.5" y="-689.3" font-family="Times,serif" font-size="14.00" fill="#0969da">String_Literal</text>
</a>
</g>
</g>
<!-- Literal&#45;&gt;String_Literal -->
<g id="edge42" class="edge">
<title>Literal&#45;&gt;String_Literal</title>
<path fill="none" stroke="black" d="M396.32,-825.98C416.83,-823.16 443.06,-816.52 461,-801 490.79,-775.22 467.03,-745.57 497,-720 506.8,-711.64 518.91,-705.84 531.32,-701.82"/>
<polygon fill="black" stroke="black" points="532.65,-705.08 541.3,-698.97 530.72,-698.35 532.65,-705.08"/>
</g>
<!-- Builtin_Boolean -->
<g id="node10" class="node">
<title>Builtin_Boolean</title>
<g id="a_node10"><a xlink:href="https://bmw-software-engineering.github.io/trlc/manual/ast.html#trlc.ast.Builtin_Boolean" xlink:title="Builtin boolean type.">
<text text-anchor="middle" x="825" y="-446.3" font-family="Times,serif" font-size="14.00" fill="#0969da">Builtin_Boolean</text>
</a>
</g>
</g>
<!-- Builtin_Type&#45;&gt;Builtin_Boolean -->
<g id="edge6" class="edge">
<title>Builtin_Type&#45;&gt;Builtin_Boolean</title>
<path fill="none" stroke="black" d="M652.68,-348.39C669.56,-352.33 687.62,-358.7 702,-369 725.45,-385.79 714.92,-405.69 738,-423 742.2,-426.15 746.77,-428.93 751.54,-431.4"/>
<polygon fill="black" stroke="black" points="750.39,-434.72 760.94,-435.75 753.34,-428.37 750.39,-434.72"/>
</g>
<!-- Builtin_Numeric_Type -->
<g id="node13" class="node">
<title>Builtin_Numeric_Type</title>
<g id="a_node13"><a xlink:href="https://bmw-software-engineering.github.io/trlc/manual/ast.html#trlc.ast.Builtin_Numeric_Type" xlink:title="Abstract base class for all builtin numeric types.">
<text text-anchor="middle" x="825" y="-392.3" font-family="Times,serif" font-size="14.00" fill="#0969da">Builtin_Numeric_Type</text>
</a>
</g>
</g>
<!-- Builtin_Type&#45;&gt;Builtin_Numeric_Type -->
<g id="edge11" class="edge">
<title>Builtin_Type&#45;&gt;Builtin_Numeric_Type</title>
<path fill="none" stroke="black" d="M652.62,-354.59C678.46,-360.84 710.32,-368.53 739.53,-375.59"/>
<polygon fill="black" stroke="black" points="738.78,-379.01 749.33,-377.96 740.43,-372.21 738.78,-379.01"/>
</g>
<!-- Builtin_String -->
<g id="node18" class="node">
<title>Builtin_String</title>
<g id="a_node18"><a xlink:href="https://bmw-software-engineering.github.io/trlc/manual/ast.html#trlc.ast.Builtin_String" xlink:title="Builtin string type.">
<text text-anchor="middle" x="825" y="-338.3" font-family="Times,serif" font-size="14.00" fill="#0969da">Builtin_String</text>
</a>
</g>
</g>
<!-- Builtin_Type&#45;&gt;Builtin_String -->
<g id="edge12" class="edge">
<title>Builtin_Type&#45;&gt;Builtin_String</title>
<path fill="none" stroke="black" d="M652.62,-342C683.6,-342 723.22,-342 756.56,-342"/>
<polygon fill="black" stroke="black" points="756.69,-345.5 766.69,-342 756.69,-338.5 756.69,-345.5"/>
</g>
<!-- Builtin_Decimal -->
<g id="node12" class="node">
<title>Builtin_Decimal</title>
<g id="a_node12"><a xlink:href="https://bmw-software-engineering.github.io/trlc/manual/ast.html#trlc.ast.Builtin_Decimal" xlink:title="Builtin decimal type.">
<text text-anchor="middle" x="1037.5" y="-446.3" font-family="Times,serif" font-size="14.00" fill="#0969da">Builtin_Decimal</text>
</a>
</g>
</g>
<!-- Builtin_Numeric_Type&#45;&gt;Builtin_Decimal -->
<g id="edge7" class="edge">
<title>Builtin_Numeric_Type&#45;&gt;Builtin_Decimal</title>
<path fill="none" stroke="black" d="M896.39,-414.06C917.84,-419.56 941.47,-425.62 963.12,-431.18"/>
<polygon fill="black" stroke="black" points="962.36,-434.59 972.91,-433.69 964.1,-427.81 962.36,-434.59"/>
</g>
<!-- Builtin_Integer -->
<g id="node16" class="node">
<title>Builtin_Integer</title>
<g id="a_node16"><a xlink:href="https://bmw-software-engineering.github.io/trlc/manual/ast.html#trlc.ast.Builtin_Integer" xlink:title="Builtin integer type.">
<text text-anchor="middle" x="1037.5" y="-392.3" font-family="Times,serif" font-size="14.00" fill="#0969da">Builtin_Integer</text>
</a>
</g>
</g>
<!-- Builtin_Numeric_Type&#45;&gt;Builtin_Integer -->
<g id="edge9" class="edge">
<title>Builtin_Numeric_Type&#45;&gt;Builtin_Integer</title>
<path fill="none" stroke="black" d="M912.23,-396C929.71,-396 947.93,-396 964.85,-396"/>
<polygon fill="black" stroke="black" points="965.2,-399.5 975.2,-396 965.2,-392.5 965.2,-399.5"/>
</g>
<!-- Builtin_Function -->
<g id="node14" class="node">
<title>Builtin_Function</title>
<g id="a_node14"><a xlink:href="https://bmw-software-engineering.github.io/trlc/manual/ast.html#trlc.ast.Builtin_Function" xlink:title="Builtin functions.">
<text text-anchor="middle" x="364" y="-230.3" font-family="Times,serif" font-size="14.00" fill="#0969da">Builtin_Function</text>
</a>
</g>
</g>
<!-- Entity&#45;&gt;Type -->
<g id="edge45" class="edge">
<title>Entity&#45;&gt;Type</title>
<path fill="none" stroke="black" d="M191.23,-241.97C227.41,-251.66 288.44,-268.02 327.18,-278.4"/>
<polygon fill="black" stroke="black" points="326.43,-281.82 336.99,-281.03 328.24,-275.06 326.43,-281.82"/>
</g>
<!-- Entity&#45;&gt;Builtin_Function -->
<g id="edge8" class="edge">
<title>Entity&#45;&gt;Builtin_Function</title>
<path fill="none" stroke="black" d="M191.23,-234C216.33,-234 253.4,-234 286.68,-234"/>
<polygon fill="black" stroke="black" points="286.87,-237.5 296.87,-234 286.87,-230.5 286.87,-237.5"/>
</g>
<!-- Typed_Entity -->
<g id="node23" class="node">
<title>Typed_Entity</title>
<g id="a_node23"><a xlink:href="https://bmw-software-engineering.github.io/trlc/manual/ast.html#trlc.ast.Typed_Entity" xlink:title="Base class for entities with a type.">
<text text-anchor="middle" x="364" y="-176.3" font-family="Times,serif" font-size="14.00" fill="#0969da">Typed_Entity</text>
</a>
</g>
</g>
<!-- Entity&#45;&gt;Typed_Entity -->
<g id="edge46" class="edge">
<title>Entity&#45;&gt;Typed_Entity</title>
<path fill="none" stroke="black" d="M191.23,-226.03C219.35,-218.5 262.49,-206.94 298.49,-197.29"/>
<polygon fill="black" stroke="black" points="299.69,-200.59 308.44,-194.62 297.88,-193.83 299.69,-200.59"/>
</g>
<!-- Package -->
<g id="node36" class="node">
<title>Package</title>
<g id="a_node36"><a xlink:href="https://bmw-software-engineering.github.io/trlc/manual/ast.html#trlc.ast.Package" xlink:title="Packages.">
<text text-anchor="middle" x="364" y="-122.3" font-family="Times,serif" font-size="14.00" fill="#0969da">Package</text>
</a>
</g>
</g>
<!-- Entity&#45;&gt;Package -->
<g id="edge33" class="edge">
<title>Entity&#45;&gt;Package</title>
<path fill="none" stroke="black" d="M191.31,-226.82C204.45,-222.61 219.49,-216.24 231,-207 253.49,-188.94 243.67,-169.96 267,-153 281.27,-142.63 299.38,-136.24 316.02,-132.3"/>
<polygon fill="black" stroke="black" points="317.08,-135.65 326.14,-130.15 315.63,-128.81 317.08,-135.65"/>
</g>
<!-- Section -->
<g id="node43" class="node">
<title>Section</title>
<g id="a_node43"><a xlink:href="https://bmw-software-engineering.github.io/trlc/manual/ast.html#trlc.ast.Section" xlink:title="A section for readability">
<text text-anchor="middle" x="364" y="-68.3" font-family="Times,serif" font-size="14.00" fill="#0969da">Section</text>
</a>
</g>
</g>
<!-- Entity&#45;&gt;Section -->
<g id="edge40" class="edge">
<title>Entity&#45;&gt;Section</title>
<path fill="none" stroke="black" d="M191.13,-228.56C204.88,-224.66 220.47,-218.06 231,-207 265.89,-170.36 230.38,-133.92 267,-99 280.89,-85.75 300.75,-78.92 318.81,-75.42"/>
<polygon fill="black" stroke="black" points="319.59,-78.84 328.89,-73.77 318.46,-71.93 319.59,-78.84"/>
</g>
<!-- Builtin_Markup_String -->
<g id="node17" class="node">
<title>Builtin_Markup_String</title>
<g id="a_node17"><a xlink:href="https://bmw-software-engineering.github.io/trlc/manual/ast.html#trlc.ast.Builtin_Markup_String" xlink:title="Builtin string type that allows checked references to TRLC&#10; &#160;&#160;&#160;&#160;&#160;&#160;objects.&#10; &#160;&#160;&#160;">
<text text-anchor="middle" x="1037.5" y="-338.3" font-family="Times,serif" font-size="14.00" fill="#0969da">Builtin_Markup_String</text>
</a>
</g>
</g>
<!-- Builtin_String&#45;&gt;Builtin_Markup_String -->
<g id="edge10" class="edge">
<title>Builtin_String&#45;&gt;Builtin_Markup_String</title>
<path fill="none" stroke="black" d="M883.24,-342C900.06,-342 918.97,-342 937.6,-342"/>
<polygon fill="black" stroke="black" points="937.61,-345.5 947.61,-342 937.61,-338.5 937.61,-345.5"/>
</g>
<!-- Composite_Component -->
<g id="node22" class="node">
<title>Composite_Component</title>
<g id="a_node22"><a xlink:href="https://bmw-software-engineering.github.io/trlc/manual/ast.html#trlc.ast.Composite_Component" xlink:title="Component in a record or tuple.">
<text text-anchor="middle" x="599.5" y="-230.3" font-family="Times,serif" font-size="14.00" fill="#0969da">Composite_Component</text>
</a>
</g>
</g>
<!-- Typed_Entity&#45;&gt;Composite_Component -->
<g id="edge17" class="edge">
<title>Typed_Entity&#45;&gt;Composite_Component</title>
<path fill="none" stroke="black" d="M419.75,-192.66C446.75,-198.91 479.98,-206.59 510.44,-213.64"/>
<polygon fill="black" stroke="black" points="509.69,-217.05 520.22,-215.9 511.27,-210.23 509.69,-217.05"/>
</g>
<!-- Enumeration_Literal_Spec -->
<g id="node29" class="node">
<title>Enumeration_Literal_Spec</title>
<g id="a_node29"><a xlink:href="https://bmw-software-engineering.github.io/trlc/manual/ast.html#trlc.ast.Enumeration_Literal_Spec" xlink:title="Declared literal in an enumeration declaration.">
<text text-anchor="middle" x="599.5" y="-176.3" font-family="Times,serif" font-size="14.00" fill="#0969da">Enumeration_Literal_Spec</text>
</a>
</g>
</g>
<!-- Typed_Entity&#45;&gt;Enumeration_Literal_Spec -->
<g id="edge24" class="edge">
<title>Typed_Entity&#45;&gt;Enumeration_Literal_Spec</title>
<path fill="none" stroke="black" d="M419.75,-180C439.82,-180 463.35,-180 486.62,-180"/>
<polygon fill="black" stroke="black" points="486.92,-183.5 496.92,-180 486.92,-176.5 486.92,-183.5"/>
</g>
<!-- Quantified_Variable -->
<g id="node38" class="node">
<title>Quantified_Variable</title>
<g id="a_node38"><a xlink:href="https://bmw-software-engineering.github.io/trlc/manual/ast.html#trlc.ast.Quantified_Variable" xlink:title="Variable used in quantified expression.">
<text text-anchor="middle" x="599.5" y="-122.3" font-family="Times,serif" font-size="14.00" fill="#0969da">Quantified_Variable</text>
</a>
</g>
</g>
<!-- Typed_Entity&#45;&gt;Quantified_Variable -->
<g id="edge35" class="edge">
<title>Typed_Entity&#45;&gt;Quantified_Variable</title>
<path fill="none" stroke="black" d="M419.75,-167.34C446.99,-161.04 480.58,-153.27 511.27,-146.17"/>
<polygon fill="black" stroke="black" points="512.16,-149.56 521.11,-143.9 510.58,-142.74 512.16,-149.56"/>
</g>
<!-- Record_Object -->
<g id="node40" class="node">
<title>Record_Object</title>
<g id="a_node40"><a xlink:href="https://bmw-software-engineering.github.io/trlc/manual/ast.html#trlc.ast.Record_Object" xlink:title="A declared instance of a record type.">
<text text-anchor="middle" x="599.5" y="-68.3" font-family="Times,serif" font-size="14.00" fill="#0969da">Record_Object</text>
</a>
</g>
</g>
<!-- Typed_Entity&#45;&gt;Record_Object -->
<g id="edge37" class="edge">
<title>Typed_Entity&#45;&gt;Record_Object</title>
<path fill="none" stroke="black" d="M419.84,-171.67C434.17,-167.67 448.96,-161.75 461,-153 484.33,-136.04 473.55,-115.79 497,-99 506.73,-92.03 518.14,-86.86 529.73,-83.03"/>
<polygon fill="black" stroke="black" points="530.9,-86.33 539.48,-80.11 528.89,-79.63 530.9,-86.33"/>
</g>
<!-- Composite_Type -->
<g id="node24" class="node">
<title>Composite_Type</title>
<g id="a_node24"><a xlink:href="https://bmw-software-engineering.github.io/trlc/manual/ast.html#trlc.ast.Composite_Type" xlink:title="Abstract base for record and tuple types, as they share some&#10; &#160;&#160;&#160;&#160;&#160;&#160;functionality.">
<text text-anchor="middle" x="825" y="-284.3" font-family="Times,serif" font-size="14.00" fill="#0969da">Composite_Type</text>
</a>
</g>
</g>
<!-- Record_Type -->
<g id="node42" class="node">
<title>Record_Type</title>
<g id="a_node42"><a xlink:href="https://bmw-software-engineering.github.io/trlc/manual/ast.html#trlc.ast.Record_Type" xlink:title="A user&#45;defined record type.">
<text text-anchor="middle" x="1037.5" y="-284.3" font-family="Times,serif" font-size="14.00" fill="#0969da">Record_Type</text>
</a>
</g>
</g>
<!-- Composite_Type&#45;&gt;Record_Type -->
<g id="edge39" class="edge">
<title>Composite_Type&#45;&gt;Record_Type</title>
<path fill="none" stroke="black" d="M892.03,-288C917.88,-288 947.43,-288 973.03,-288"/>
<polygon fill="black" stroke="black" points="973.37,-291.5 983.37,-288 973.37,-284.5 973.37,-291.5"/>
</g>
<!-- Tuple_Type -->
<g id="node47" class="node">
<title>Tuple_Type</title>
<g id="a_node47"><a xlink:href="https://bmw-software-engineering.github.io/trlc/manual/ast.html#trlc.ast.Tuple_Type" xlink:title="A user&#45;defined tuple type.">
<text text-anchor="middle" x="1037.5" y="-230.3" font-family="Times,serif" font-size="14.00" fill="#0969da">Tuple_Type</text>
</a>
</g>
</g>
<!-- Composite_Type&#45;&gt;Tuple_Type -->
<g id="edge44" class="edge">
<title>Composite_Type&#45;&gt;Tuple_Type</title>
<path fill="none" stroke="black" d="M892.03,-271.06C919.72,-263.96 951.63,-255.77 978.41,-248.9"/>
<polygon fill="black" stroke="black" points="979.59,-252.21 988.41,-246.34 977.85,-245.43 979.59,-252.21"/>
</g>
<!-- Concrete_Type&#45;&gt;Composite_Type -->
<g id="edge18" class="edge">
<title>Concrete_Type&#45;&gt;Composite_Type</title>
<path fill="none" stroke="black" d="M660.69,-288C687.4,-288 719.15,-288 747.52,-288"/>
<polygon fill="black" stroke="black" points="747.81,-291.5 757.81,-288 747.81,-284.5 747.81,-291.5"/>
</g>
<!-- Enumeration_Type -->
<g id="node30" class="node">
<title>Enumeration_Type</title>
<g id="a_node30"><a xlink:href="https://bmw-software-engineering.github.io/trlc/manual/ast.html#trlc.ast.Enumeration_Type" xlink:title="User&#45;defined enumeration types.">
<text text-anchor="middle" x="825" y="-230.3" font-family="Times,serif" font-size="14.00" fill="#0969da">Enumeration_Type</text>
</a>
</g>
</g>
<!-- Concrete_Type&#45;&gt;Enumeration_Type -->
<g id="edge25" class="edge">
<title>Concrete_Type&#45;&gt;Enumeration_Type</title>
<path fill="none" stroke="black" d="M660.69,-273.46C684.88,-267.61 713.2,-260.77 739.4,-254.44"/>
<polygon fill="black" stroke="black" points="740.42,-257.79 749.32,-252.04 738.78,-250.99 740.42,-257.79"/>
</g>
</g>
</svg>
