<?xml version="1.0" encoding="UTF-8" standalone="no"?>
<!DOCTYPE svg PUBLIC "-//W3C//DTD SVG 1.1//EN"
 "http://www.w3.org/Graphics/SVG/1.1/DTD/svg11.dtd">
<!-- Generated by graphviz version 2.43.0 (0)
 -->
<!-- Title: AST Hierarchy Pages: 1 -->
<svg width="1090pt" height="935pt"
 viewBox="0.00 0.00 1090.00 935.00" xmlns="http://www.w3.org/2000/svg" xmlns:xlink="http://www.w3.org/1999/xlink">
<g id="graph0" class="graph" transform="scale(1 1) rotate(0) translate(4 931)">
<title>AST Hierarchy</title>
<polygon fill="white" stroke="transparent" points="-4,4 -4,-931 1086,-931 1086,4 -4,4"/>
<!-- Action -->
<g id="node1" class="node">
<title>Action</title>
<g id="a_node1"><a xlink:href="https://bmw-software-engineering.github.io/trlc/manual/ast.html#trlc.ast.Action" xlink:title="An if or elseif part inside a conditional expression">
<text text-anchor="middle" x="138" y="-581.3" font-family="Times,serif" font-size="14.00" fill="#0969da">Action</text>
</a>
</g>
</g>
<!-- Node -->
<g id="node2" class="node">
<title>Node</title>
<g id="a_node2"><a xlink:href="https://bmw-software-engineering.github.io/trlc/manual/ast.html#trlc.ast.Node" xlink:title="Base class for all AST items.">
<text text-anchor="middle" x="27" y="-176.3" font-family="Times,serif" font-size="14.00" fill="#0969da">Node</text>
</a>
</g>
</g>
<!-- Node&#45;&gt;Action -->
<g id="edge1" class="edge">
<title>Node&#45;&gt;Action</title>
<path fill="none" stroke="black" d="M28.94,-198.11C32.71,-265.14 48.62,-498.28 90,-558 92.41,-561.48 95.43,-564.57 98.76,-567.3"/>
<polygon fill="black" stroke="black" points="96.78,-570.19 106.98,-573.04 100.78,-564.44 96.78,-570.19"/>
</g>
<!-- Expression -->
<g id="node4" class="node">
<title>Expression</title>
<g id="a_node4"><a xlink:href="https://bmw-software-engineering.github.io/trlc/manual/ast.html#trlc.ast.Expression" xlink:title="Abstract base class for all expressions.">
<text text-anchor="middle" x="138" y="-527.3" font-family="Times,serif" font-size="14.00" fill="#0969da">Expression</text>
</a>
</g>
</g>
<!-- Node&#45;&gt;Expression -->
<g id="edge24" class="edge">
<title>Node&#45;&gt;Expression</title>
<path fill="none" stroke="black" d="M33.71,-198.38C51.62,-256.07 106.83,-433.85 128.32,-503.04"/>
<polygon fill="black" stroke="black" points="125.04,-504.29 131.35,-512.8 131.73,-502.22 125.04,-504.29"/>
</g>
<!-- Entity -->
<g id="node15" class="node">
<title>Entity</title>
<g id="a_node15"><a xlink:href="https://bmw-software-engineering.github.io/trlc/manual/ast.html#trlc.ast.Entity" xlink:title="Base class for all entities.">
<text text-anchor="middle" x="138" y="-176.3" font-family="Times,serif" font-size="14.00" fill="#0969da">Entity</text>
</a>
</g>
</g>
<!-- Node&#45;&gt;Entity -->
<g id="edge20" class="edge">
<title>Node&#45;&gt;Entity</title>
<path fill="none" stroke="black" d="M54.11,-180C66.98,-180 82.79,-180 97.13,-180"/>
<polygon fill="black" stroke="black" points="97.25,-183.5 107.25,-180 97.25,-176.5 97.25,-183.5"/>
</g>
<!-- Check -->
<g id="node19" class="node">
<title>Check</title>
<g id="a_node19"><a xlink:href="https://bmw-software-engineering.github.io/trlc/manual/ast.html#trlc.ast.Check" xlink:title="User defined check">
<text text-anchor="middle" x="138" y="-122.3" font-family="Times,serif" font-size="14.00" fill="#0969da">Check</text>
</a>
</g>
</g>
<!-- Node&#45;&gt;Check -->
<g id="edge14" class="edge">
<title>Node&#45;&gt;Check</title>
<path fill="none" stroke="black" d="M54.11,-167.07C67.33,-160.51 83.66,-152.43 98.31,-145.17"/>
<polygon fill="black" stroke="black" points="100.24,-148.12 107.65,-140.54 97.13,-141.85 100.24,-148.12"/>
</g>
<!-- Separator -->
<g id="node42" class="node">
<title>Separator</title>
<g id="a_node42"><a xlink:href="https://bmw-software-engineering.github.io/trlc/manual/ast.html#trlc.ast.Separator" xlink:title="User&#45;defined syntactic separator">
<text text-anchor="middle" x="138" y="-68.3" font-family="Times,serif" font-size="14.00" fill="#0969da">Separator</text>
</a>
</g>
</g>
<!-- Node&#45;&gt;Separator -->
<g id="edge39" class="edge">
<title>Node&#45;&gt;Separator</title>
<path fill="none" stroke="black" d="M38.84,-161.92C50.03,-144.31 68.82,-117.56 90,-99 91.11,-98.03 92.25,-97.08 93.43,-96.15"/>
<polygon fill="black" stroke="black" points="95.49,-98.98 101.55,-90.29 91.39,-93.3 95.49,-98.98"/>
</g>
<!-- Array_Aggregate -->
<g id="node3" class="node">
<title>Array_Aggregate</title>
<g id="a_node3"><a xlink:href="https://bmw-software-engineering.github.io/trlc/manual/ast.html#trlc.ast.Array_Aggregate" xlink:title="Instances of array types">
<text text-anchor="middle" x="319" y="-878.3" font-family="Times,serif" font-size="14.00" fill="#0969da">Array_Aggregate</text>
</a>
</g>
</g>
<!-- Expression&#45;&gt;Array_Aggregate -->
<g id="edge2" class="edge">
<title>Expression&#45;&gt;Array_Aggregate</title>
<path fill="none" stroke="black" d="M178.04,-549.15C181.09,-551.76 183.82,-554.7 186,-558 259.42,-668.86 135.47,-754.04 222,-855 227.23,-861.1 233.72,-865.88 240.83,-869.61"/>
<polygon fill="black" stroke="black" points="239.59,-872.88 250.14,-873.8 242.46,-866.5 239.59,-872.88"/>
</g>
<!-- Binary_Expression -->
<g id="node7" class="node">
<title>Binary_Expression</title>
<g id="a_node7"><a xlink:href="https://bmw-software-engineering.github.io/trlc/manual/ast.html#trlc.ast.Binary_Expression" xlink:title="Expression with two operands">
<text text-anchor="middle" x="319" y="-824.3" font-family="Times,serif" font-size="14.00" fill="#0969da">Binary_Expression</text>
</a>
</g>
</g>
<!-- Expression&#45;&gt;Binary_Expression -->
<g id="edge4" class="edge">
<title>Expression&#45;&gt;Binary_Expression</title>
<path fill="none" stroke="black" d="M177.95,-549.21C181.01,-551.81 183.77,-554.73 186,-558 247.49,-648.22 149.86,-719.05 222,-801 225.72,-805.22 230.04,-808.81 234.75,-811.85"/>
<polygon fill="black" stroke="black" points="233.16,-814.97 243.61,-816.76 236.56,-808.85 233.16,-814.97"/>
</g>
<!-- Literal -->
<g id="node9" class="node">
<title>Literal</title>
<g id="a_node9"><a xlink:href="https://bmw-software-engineering.github.io/trlc/manual/ast.html#trlc.ast.Literal" xlink:title="Abstract base for all Literals">
<text text-anchor="middle" x="319" y="-770.3" font-family="Times,serif" font-size="14.00" fill="#0969da">Literal</text>
</a>
</g>
</g>
<!-- Expression&#45;&gt;Literal -->
<g id="edge28" class="edge">
<title>Expression&#45;&gt;Literal</title>
<path fill="none" stroke="black" d="M177.81,-549.31C180.9,-551.89 183.71,-554.78 186,-558 235.6,-627.65 164.19,-683.99 222,-747 235.89,-762.14 257.53,-769.04 276.75,-772.1"/>
<polygon fill="black" stroke="black" points="276.46,-775.59 286.82,-773.39 277.35,-768.64 276.46,-775.59"/>
</g>
<!-- Conditional_Expression -->
<g id="node24" class="node">
<title>Conditional_Expression</title>
<g id="a_node24"><a xlink:href="https://bmw-software-engineering.github.io/trlc/manual/ast.html#trlc.ast.Conditional_Expression" xlink:title="A conditional expression">
<text text-anchor="middle" x="319" y="-716.3" font-family="Times,serif" font-size="14.00" fill="#0969da">Conditional_Expression</text>
</a>
</g>
</g>
<!-- Expression&#45;&gt;Conditional_Expression -->
<g id="edge18" class="edge">
<title>Expression&#45;&gt;Conditional_Expression</title>
<path fill="none" stroke="black" d="M177.12,-549.13C180.43,-551.76 183.48,-554.72 186,-558 223.83,-607.25 178.39,-648.79 222,-693 222.92,-693.94 223.88,-694.84 224.86,-695.71"/>
<polygon fill="black" stroke="black" points="222.79,-698.54 232.86,-701.83 227.04,-692.97 222.79,-698.54"/>
</g>
<!-- Field_Access_Expression -->
<g id="node29" class="node">
<title>Field_Access_Expression</title>
<g id="a_node29"><a xlink:href="https://bmw-software-engineering.github.io/trlc/manual/ast.html#trlc.ast.Field_Access_Expression" xlink:title="Tuple field access">
<text text-anchor="middle" x="319" y="-662.3" font-family="Times,serif" font-size="14.00" fill="#0969da">Field_Access_Expression</text>
</a>
</g>
</g>
<!-- Expression&#45;&gt;Field_Access_Expression -->
<g id="edge25" class="edge">
<title>Expression&#45;&gt;Field_Access_Expression</title>
<path fill="none" stroke="black" d="M176.14,-549.21C179.73,-551.85 183.1,-554.79 186,-558 212.38,-587.26 192.21,-613.22 222,-639 223.35,-640.17 224.75,-641.29 226.19,-642.36"/>
<polygon fill="black" stroke="black" points="224.54,-645.46 234.83,-647.97 228.35,-639.59 224.54,-645.46"/>
</g>
<!-- Implicit_Null -->
<g id="node30" class="node">
<title>Implicit_Null</title>
<g id="a_node30"><a xlink:href="https://bmw-software-engineering.github.io/trlc/manual/ast.html#trlc.ast.Implicit_Null" xlink:title="Synthesised null values">
<text text-anchor="middle" x="319" y="-608.3" font-family="Times,serif" font-size="14.00" fill="#0969da">Implicit_Null</text>
</a>
</g>
</g>
<!-- Expression&#45;&gt;Implicit_Null -->
<g id="edge26" class="edge">
<title>Expression&#45;&gt;Implicit_Null</title>
<path fill="none" stroke="black" d="M171.68,-549.08C176.54,-551.97 181.44,-555 186,-558 202.7,-569 204.07,-576.14 222,-585 232.32,-590.1 243.77,-594.37 255.04,-597.9"/>
<polygon fill="black" stroke="black" points="254.3,-601.33 264.88,-600.82 256.29,-594.62 254.3,-601.33"/>
</g>
<!-- Name_Reference -->
<g id="node32" class="node">
<title>Name_Reference</title>
<g id="a_node32"><a xlink:href="https://bmw-software-engineering.github.io/trlc/manual/ast.html#trlc.ast.Name_Reference" xlink:title="Reference to a name">
<text text-anchor="middle" x="319" y="-554.3" font-family="Times,serif" font-size="14.00" fill="#0969da">Name_Reference</text>
</a>
</g>
</g>
<!-- Expression&#45;&gt;Name_Reference -->
<g id="edge29" class="edge">
<title>Expression&#45;&gt;Name_Reference</title>
<path fill="none" stroke="black" d="M186.03,-538.09C202.71,-540.61 221.96,-543.51 240.5,-546.31"/>
<polygon fill="black" stroke="black" points="240.01,-549.77 250.42,-547.81 241.05,-542.85 240.01,-549.77"/>
</g>
<!-- Quantified_Expression -->
<g id="node35" class="node">
<title>Quantified_Expression</title>
<g id="a_node35"><a xlink:href="https://bmw-software-engineering.github.io/trlc/manual/ast.html#trlc.ast.Quantified_Expression" xlink:title="A quantified expression">
<text text-anchor="middle" x="319" y="-500.3" font-family="Times,serif" font-size="14.00" fill="#0969da">Quantified_Expression</text>
</a>
</g>
</g>
<!-- Expression&#45;&gt;Quantified_Expression -->
<g id="edge32" class="edge">
<title>Expression&#45;&gt;Quantified_Expression</title>
<path fill="none" stroke="black" d="M186.03,-523.91C196.71,-522.29 208.44,-520.53 220.37,-518.73"/>
<polygon fill="black" stroke="black" points="221.05,-522.16 230.42,-517.21 220.01,-515.24 221.05,-522.16"/>
</g>
<!-- Range_Test -->
<g id="node37" class="node">
<title>Range_Test</title>
<g id="a_node37"><a xlink:href="https://bmw-software-engineering.github.io/trlc/manual/ast.html#trlc.ast.Range_Test" xlink:title="Range membership test">
<text text-anchor="middle" x="319" y="-446.3" font-family="Times,serif" font-size="14.00" fill="#0969da">Range_Test</text>
</a>
</g>
</g>
<!-- Expression&#45;&gt;Range_Test -->
<g id="edge34" class="edge">
<title>Expression&#45;&gt;Range_Test</title>
<path fill="none" stroke="black" d="M162.58,-512.89C178.61,-501.29 200.7,-486.65 222,-477 233.94,-471.59 247.21,-467.02 259.98,-463.26"/>
<polygon fill="black" stroke="black" points="260.95,-466.63 269.62,-460.55 259.05,-459.89 260.95,-466.63"/>
</g>
<!-- Record_Reference -->
<g id="node39" class="node">
<title>Record_Reference</title>
<g id="a_node39"><a xlink:href="https://bmw-software-engineering.github.io/trlc/manual/ast.html#trlc.ast.Record_Reference" xlink:title="Reference to another record object">
<text text-anchor="middle" x="319" y="-392.3" font-family="Times,serif" font-size="14.00" fill="#0969da">Record_Reference</text>
</a>
</g>
</g>
<!-- Expression&#45;&gt;Record_Reference -->
<g id="edge36" class="edge">
<title>Expression&#45;&gt;Record_Reference</title>
<path fill="none" stroke="black" d="M148.15,-512.78C161.23,-488.62 187.53,-446.32 222,-423 226.57,-419.91 231.49,-417.17 236.6,-414.74"/>
<polygon fill="black" stroke="black" points="238.18,-417.87 245.98,-410.69 235.41,-411.44 238.18,-417.87"/>
</g>
<!-- Tuple_Aggregate -->
<g id="node44" class="node">
<title>Tuple_Aggregate</title>
<g id="a_node44"><a xlink:href="https://bmw-software-engineering.github.io/trlc/manual/ast.html#trlc.ast.Tuple_Aggregate" xlink:title="Instances of a tuple">
<text text-anchor="middle" x="319" y="-338.3" font-family="Times,serif" font-size="14.00" fill="#0969da">Tuple_Aggregate</text>
</a>
</g>
</g>
<!-- Expression&#45;&gt;Tuple_Aggregate -->
<g id="edge41" class="edge">
<title>Expression&#45;&gt;Tuple_Aggregate</title>
<path fill="none" stroke="black" d="M143.16,-512.89C151.83,-479.34 175.04,-407.42 222,-369 227.71,-364.33 234.18,-360.46 241,-357.26"/>
<polygon fill="black" stroke="black" points="242.6,-360.39 250.48,-353.31 239.9,-353.93 242.6,-360.39"/>
</g>
<!-- Unary_Expression -->
<g id="node46" class="node">
<title>Unary_Expression</title>
<g id="a_node46"><a xlink:href="https://bmw-software-engineering.github.io/trlc/manual/ast.html#trlc.ast.Unary_Expression" xlink:title="Expression with only one operand">
<text text-anchor="middle" x="319" y="-284.3" font-family="Times,serif" font-size="14.00" fill="#0969da">Unary_Expression</text>
</a>
</g>
</g>
<!-- Expression&#45;&gt;Unary_Expression -->
<g id="edge45" class="edge">
<title>Expression&#45;&gt;Unary_Expression</title>
<path fill="none" stroke="black" d="M140.58,-512.91C145.19,-471.53 162.32,-369.39 222,-315 226.34,-311.04 231.23,-307.66 236.42,-304.76"/>
<polygon fill="black" stroke="black" points="238,-307.89 245.43,-300.35 234.91,-301.61 238,-307.89"/>
</g>
<!-- Array_Type -->
<g id="node5" class="node">
<title>Array_Type</title>
<g id="a_node5"><a xlink:href="https://bmw-software-engineering.github.io/trlc/manual/ast.html#trlc.ast.Array_Type" xlink:title="Anonymous array type.">
<text text-anchor="middle" x="554.5" y="-338.3" font-family="Times,serif" font-size="14.00" fill="#0969da">Array_Type</text>
</a>
</g>
</g>
<!-- Type -->
<g id="node6" class="node">
<title>Type</title>
<g id="a_node6"><a xlink:href="https://bmw-software-engineering.github.io/trlc/manual/ast.html#trlc.ast.Type" xlink:title="Abstract base class for all types.">
<text text-anchor="middle" x="319" y="-230.3" font-family="Times,serif" font-size="14.00" fill="#0969da">Type</text>
</a>
</g>
</g>
<!-- Type&#45;&gt;Array_Type -->
<g id="edge3" class="edge">
<title>Type&#45;&gt;Array_Type</title>
<path fill="none" stroke="black" d="M346.19,-236.38C366.81,-239.36 395.41,-246.04 416,-261 439.33,-277.96 428.55,-298.21 452,-315 464.77,-324.14 480.44,-330.19 495.61,-334.19"/>
<polygon fill="black" stroke="black" points="494.93,-337.63 505.47,-336.53 496.55,-330.82 494.93,-337.63"/>
</g>
<!-- Builtin_Type -->
<g id="node11" class="node">
<title>Builtin_Type</title>
<g id="a_node11"><a xlink:href="https://bmw-software-engineering.github.io/trlc/manual/ast.html#trlc.ast.Builtin_Type" xlink:title="Abstract base class for all builtin types.">
<text text-anchor="middle" x="554.5" y="-284.3" font-family="Times,serif" font-size="14.00" fill="#0969da">Builtin_Type</text>
</a>
</g>
</g>
<!-- Type&#45;&gt;Builtin_Type -->
<g id="edge13" class="edge">
<title>Type&#45;&gt;Builtin_Type</title>
<path fill="none" stroke="black" d="M346.33,-240.09C381.3,-248.18 444.14,-262.71 491.47,-273.65"/>
<polygon fill="black" stroke="black" points="490.79,-277.09 501.32,-275.93 492.36,-270.27 490.79,-277.09"/>
</g>
<!-- Concrete_Type -->
<g id="node23" class="node">
<title>Concrete_Type</title>
<g id="a_node23"><a xlink:href="https://bmw-software-engineering.github.io/trlc/manual/ast.html#trlc.ast.Concrete_Type" xlink:title="Abstract base class for all non&#45;anonymous types.">
<text text-anchor="middle" x="554.5" y="-230.3" font-family="Times,serif" font-size="14.00" fill="#0969da">Concrete_Type</text>
</a>
</g>
</g>
<!-- Type&#45;&gt;Concrete_Type -->
<g id="edge17" class="edge">
<title>Type&#45;&gt;Concrete_Type</title>
<path fill="none" stroke="black" d="M346.33,-234C379.26,-234 436.93,-234 483.07,-234"/>
<polygon fill="black" stroke="black" points="483.33,-237.5 493.33,-234 483.33,-230.5 483.33,-237.5"/>
</g>
<!-- Boolean_Literal -->
<g id="node8" class="node">
<title>Boolean_Literal</title>
<g id="a_node8"><a xlink:href="https://bmw-software-engineering.github.io/trlc/manual/ast.html#trlc.ast.Boolean_Literal" xlink:title="Boolean values">
<text text-anchor="middle" x="554.5" y="-905.3" font-family="Times,serif" font-size="14.00" fill="#0969da">Boolean_Literal</text>
</a>
</g>
</g>
<!-- Literal&#45;&gt;Boolean_Literal -->
<g id="edge5" class="edge">
<title>Literal&#45;&gt;Boolean_Literal</title>
<path fill="none" stroke="black" d="M351.32,-776.02C371.83,-778.84 398.06,-785.48 416,-801 445.79,-826.78 422.03,-856.43 452,-882 460.34,-889.11 470.35,-894.37 480.8,-898.26"/>
<polygon fill="black" stroke="black" points="479.89,-901.65 490.48,-901.46 482.09,-895 479.89,-901.65"/>
</g>
<!-- Decimal_Literal -->
<g id="node25" class="node">
<title>Decimal_Literal</title>
<g id="a_node25"><a xlink:href="https://bmw-software-engineering.github.io/trlc/manual/ast.html#trlc.ast.Decimal_Literal" xlink:title="Decimal literals">
<text text-anchor="middle" x="554.5" y="-851.3" font-family="Times,serif" font-size="14.00" fill="#0969da">Decimal_Literal</text>
</a>
</g>
</g>
<!-- Literal&#45;&gt;Decimal_Literal -->
<g id="edge19" class="edge">
<title>Literal&#45;&gt;Decimal_Literal</title>
<path fill="none" stroke="black" d="M351.33,-779.74C370.63,-784.02 395.51,-790.88 416,-801 433.93,-809.86 434.01,-819.27 452,-828 460.98,-832.36 470.76,-836.09 480.59,-839.26"/>
<polygon fill="black" stroke="black" points="479.83,-842.68 490.41,-842.24 481.86,-835.98 479.83,-842.68"/>
</g>
<!-- Enumeration_Literal -->
<g id="node26" class="node">
<title>Enumeration_Literal</title>
<g id="a_node26"><a xlink:href="https://bmw-software-engineering.github.io/trlc/manual/ast.html#trlc.ast.Enumeration_Literal" xlink:title="Enumeration values">
<text text-anchor="middle" x="554.5" y="-797.3" font-family="Times,serif" font-size="14.00" fill="#0969da">Enumeration_Literal</text>
</a>
</g>
</g>
<!-- Literal&#45;&gt;Enumeration_Literal -->
<g id="edge21" class="edge">
<title>Literal&#45;&gt;Enumeration_Literal</title>
<path fill="none" stroke="black" d="M351.01,-777.59C379.37,-780.86 422.77,-785.88 462.13,-790.43"/>
<polygon fill="black" stroke="black" points="461.97,-793.94 472.3,-791.61 462.77,-786.99 461.97,-793.94"/>
</g>
<!-- Integer_Literal -->
<g id="node31" class="node">
<title>Integer_Literal</title>
<g id="a_node31"><a xlink:href="https://bmw-software-engineering.github.io/trlc/manual/ast.html#trlc.ast.Integer_Literal" xlink:title="Integer literals">
<text text-anchor="middle" x="554.5" y="-743.3" font-family="Times,serif" font-size="14.00" fill="#0969da">Integer_Literal</text>
</a>
</g>
</g>
<!-- Literal&#45;&gt;Integer_Literal -->
<g id="edge27" class="edge">
<title>Literal&#45;&gt;Integer_Literal</title>
<path fill="none" stroke="black" d="M351.01,-770.41C384.38,-766.56 438.6,-760.29 482.53,-755.21"/>
<polygon fill="black" stroke="black" points="483.06,-758.67 492.6,-754.04 482.26,-751.71 483.06,-758.67"/>
</g>
<!-- Null_Literal -->
<g id="node33" class="node">
<title>Null_Literal</title>
<g id="a_node33"><a xlink:href="https://bmw-software-engineering.github.io/trlc/manual/ast.html#trlc.ast.Null_Literal" xlink:title="The null literal">
<text text-anchor="middle" x="554.5" y="-689.3" font-family="Times,serif" font-size="14.00" fill="#0969da">Null_Literal</text>
</a>
</g>
</g>
<!-- Literal&#45;&gt;Null_Literal -->
<g id="edge30" class="edge">
<title>Literal&#45;&gt;Null_Literal</title>
<path fill="none" stroke="black" d="M351.33,-768.26C370.63,-763.98 395.51,-757.12 416,-747 433.93,-738.14 434.01,-728.73 452,-720 465.13,-713.63 479.97,-708.6 494.17,-704.7"/>
<polygon fill="black" stroke="black" points="495.07,-708.09 503.87,-702.18 493.31,-701.31 495.07,-708.09"/>
</g>
<!-- String_Literal -->
<g id="node43" class="node">
<title>String_Literal</title>
<g id="a_node43"><a xlink:href="https://bmw-software-engineering.github.io/trlc/manual/ast.html#trlc.ast.String_Literal" xlink:title="String literals">
<text text-anchor="middle" x="554.5" y="-635.3" font-family="Times,serif" font-size="14.00" fill="#0969da">String_Literal</text>
</a>
</g>
</g>
<!-- Literal&#45;&gt;String_Literal -->
<g id="edge40" class="edge">
<title>Literal&#45;&gt;String_Literal</title>
<path fill="none" stroke="black" d="M351.32,-771.98C371.83,-769.16 398.06,-762.52 416,-747 445.79,-721.22 422.03,-691.57 452,-666 461.8,-657.64 473.91,-651.84 486.32,-647.82"/>
<polygon fill="black" stroke="black" points="487.65,-651.08 496.3,-644.97 485.72,-644.35 487.65,-651.08"/>
</g>
<!-- Builtin_Boolean -->
<g id="node10" class="node">
<title>Builtin_Boolean</title>
<g id="a_node10"><a xlink:href="https://bmw-software-engineering.github.io/trlc/manual/ast.html#trlc.ast.Builtin_Boolean" xlink:title="Builtin boolean type.">
<text text-anchor="middle" x="780" y="-392.3" font-family="Times,serif" font-size="14.00" fill="#0969da">Builtin_Boolean</text>
</a>
</g>
</g>
<!-- Builtin_Type&#45;&gt;Builtin_Boolean -->
<g id="edge6" class="edge">
<title>Builtin_Type&#45;&gt;Builtin_Boolean</title>
<path fill="none" stroke="black" d="M607.68,-294.39C624.56,-298.33 642.62,-304.7 657,-315 680.45,-331.79 669.92,-351.69 693,-369 697.2,-372.15 701.77,-374.93 706.54,-377.4"/>
<polygon fill="black" stroke="black" points="705.39,-380.72 715.94,-381.75 708.34,-374.37 705.39,-380.72"/>
</g>
<!-- Builtin_Numeric_Type -->
<g id="node13" class="node">
<title>Builtin_Numeric_Type</title>
<g id="a_node13"><a xlink:href="https://bmw-software-engineering.github.io/trlc/manual/ast.html#trlc.ast.Builtin_Numeric_Type" xlink:title="Abstract base class for all builtin numeric types.">
<text text-anchor="middle" x="780" y="-338.3" font-family="Times,serif" font-size="14.00" fill="#0969da">Builtin_Numeric_Type</text>
</a>
</g>
</g>
<!-- Builtin_Type&#45;&gt;Builtin_Numeric_Type -->
<g id="edge11" class="edge">
<title>Builtin_Type&#45;&gt;Builtin_Numeric_Type</title>
<path fill="none" stroke="black" d="M607.62,-300.59C633.46,-306.84 665.32,-314.53 694.53,-321.59"/>
<polygon fill="black" stroke="black" points="693.78,-325.01 704.33,-323.96 695.43,-318.21 693.78,-325.01"/>
</g>
<!-- Builtin_String -->
<g id="node18" class="node">
<title>Builtin_String</title>
<g id="a_node18"><a xlink:href="https://bmw-software-engineering.github.io/trlc/manual/ast.html#trlc.ast.Builtin_String" xlink:title="Builtin string type.">
<text text-anchor="middle" x="780" y="-284.3" font-family="Times,serif" font-size="14.00" fill="#0969da">Builtin_String</text>
</a>
</g>
</g>
<!-- Builtin_Type&#45;&gt;Builtin_String -->
<g id="edge12" class="edge">
<title>Builtin_Type&#45;&gt;Builtin_String</title>
<path fill="none" stroke="black" d="M607.62,-288C638.6,-288 678.22,-288 711.56,-288"/>
<polygon fill="black" stroke="black" points="711.69,-291.5 721.69,-288 711.69,-284.5 711.69,-291.5"/>
</g>
<!-- Builtin_Decimal -->
<g id="node12" class="node">
<title>Builtin_Decimal</title>
<g id="a_node12"><a xlink:href="https://bmw-software-engineering.github.io/trlc/manual/ast.html#trlc.ast.Builtin_Decimal" xlink:title="Builtin decimal type.">
<text text-anchor="middle" x="992.5" y="-392.3" font-family="Times,serif" font-size="14.00" fill="#0969da">Builtin_Decimal</text>
</a>
</g>
</g>
<!-- Builtin_Numeric_Type&#45;&gt;Builtin_Decimal -->
<g id="edge7" class="edge">
<title>Builtin_Numeric_Type&#45;&gt;Builtin_Decimal</title>
<path fill="none" stroke="black" d="M851.39,-360.06C872.84,-365.56 896.47,-371.62 918.12,-377.18"/>
<polygon fill="black" stroke="black" points="917.36,-380.59 927.91,-379.69 919.1,-373.81 917.36,-380.59"/>
</g>
<!-- Builtin_Integer -->
<g id="node16" class="node">
<title>Builtin_Integer</title>
<g id="a_node16"><a xlink:href="https://bmw-software-engineering.github.io/trlc/manual/ast.html#trlc.ast.Builtin_Integer" xlink:title="Builtin integer type.">
<text text-anchor="middle" x="992.5" y="-338.3" font-family="Times,serif" font-size="14.00" fill="#0969da">Builtin_Integer</text>
</a>
</g>
</g>
<!-- Builtin_Numeric_Type&#45;&gt;Builtin_Integer -->
<g id="edge9" class="edge">
<title>Builtin_Numeric_Type&#45;&gt;Builtin_Integer</title>
<path fill="none" stroke="black" d="M867.23,-342C884.71,-342 902.93,-342 919.85,-342"/>
<polygon fill="black" stroke="black" points="920.2,-345.5 930.2,-342 920.2,-338.5 920.2,-345.5"/>
</g>
<!-- Builtin_Function -->
<g id="node14" class="node">
<title>Builtin_Function</title>
<g id="a_node14"><a xlink:href="https://bmw-software-engineering.github.io/trlc/manual/ast.html#trlc.ast.Builtin_Function" xlink:title="Builtin functions.">
<text text-anchor="middle" x="319" y="-176.3" font-family="Times,serif" font-size="14.00" fill="#0969da">Builtin_Function</text>
</a>
</g>
</g>
<!-- Entity&#45;&gt;Type -->
<g id="edge43" class="edge">
<title>Entity&#45;&gt;Type</title>
<path fill="none" stroke="black" d="M168.87,-190.04C184.63,-195.25 204.31,-201.64 222,-207 241.76,-212.99 263.94,-219.26 282,-224.25"/>
<polygon fill="black" stroke="black" points="281.27,-227.67 291.84,-226.95 283.13,-220.92 281.27,-227.67"/>
</g>
<!-- Entity&#45;&gt;Builtin_Function -->
<g id="edge8" class="edge">
<title>Entity&#45;&gt;Builtin_Function</title>
<path fill="none" stroke="black" d="M168.56,-180C188.55,-180 215.91,-180 241.77,-180"/>
<polygon fill="black" stroke="black" points="241.97,-183.5 251.97,-180 241.97,-176.5 241.97,-183.5"/>
</g>
<!-- Typed_Entity -->
<g id="node21" class="node">
<title>Typed_Entity</title>
<g id="a_node21"><a xlink:href="https://bmw-software-engineering.github.io/trlc/manual/ast.html#trlc.ast.Typed_Entity" xlink:title="Base class for entities with a type.">
<text text-anchor="middle" x="319" y="-122.3" font-family="Times,serif" font-size="14.00" fill="#0969da">Typed_Entity</text>
</a>
</g>
</g>
<!-- Entity&#45;&gt;Typed_Entity -->
<g id="edge44" class="edge">
<title>Entity&#45;&gt;Typed_Entity</title>
<path fill="none" stroke="black" d="M168.87,-169.96C184.63,-164.75 204.31,-158.36 222,-153 232.21,-149.9 243.07,-146.73 253.67,-143.71"/>
<polygon fill="black" stroke="black" points="254.65,-147.07 263.31,-140.97 252.74,-140.33 254.65,-147.07"/>
</g>
<!-- Package -->
<g id="node34" class="node">
<title>Package</title>
<g id="a_node34"><a xlink:href="https://bmw-software-engineering.github.io/trlc/manual/ast.html#trlc.ast.Package" xlink:title="Packages.">
<text text-anchor="middle" x="319" y="-68.3" font-family="Times,serif" font-size="14.00" fill="#0969da">Package</text>
</a>
</g>
</g>
<!-- Entity&#45;&gt;Package -->
<g id="edge31" class="edge">
<title>Entity&#45;&gt;Package</title>
<path fill="none" stroke="black" d="M168.78,-165.68C174.84,-162.02 180.91,-157.76 186,-153 207.06,-133.29 198.67,-115.96 222,-99 236.27,-88.63 254.38,-82.24 271.02,-78.3"/>
<polygon fill="black" stroke="black" points="272.08,-81.65 281.14,-76.15 270.63,-74.81 272.08,-81.65"/>
</g>
<!-- Section -->
<g id="node41" class="node">
<title>Section</title>
<g id="a_node41"><a xlink:href="https://bmw-software-engineering.github.io/trlc/manual/ast.html#trlc.ast.Section" xlink:title="A section for readability">
<text text-anchor="middle" x="319" y="-14.3" font-family="Times,serif" font-size="14.00" fill="#0969da">Section</text>
</a>
</g>
</g>
<!-- Entity&#45;&gt;Section -->
<g id="edge38" class="edge">
<title>Entity&#45;&gt;Section</title>
<path fill="none" stroke="black" d="M168.83,-167.23C175.17,-163.41 181.35,-158.68 186,-153 218.03,-113.83 185.38,-79.92 222,-45 235.89,-31.75 255.75,-24.92 273.81,-21.42"/>
<polygon fill="black" stroke="black" points="274.59,-24.84 283.89,-19.77 273.46,-17.93 274.59,-24.84"/>
</g>
<!-- Builtin_Markup_String -->
<g id="node17" class="node">
<title>Builtin_Markup_String</title>
<g id="a_node17"><a xlink:href="https://bmw-software-engineering.github.io/trlc/manual/ast.html#trlc.ast.Builtin_Markup_String" xlink:title="Builtin string type that allows checked references to TRLC&#10; &#160;&#160;&#160;&#160;&#160;&#160;objects.&#10; &#160;&#160;&#160;">
<text text-anchor="middle" x="992.5" y="-284.3" font-family="Times,serif" font-size="14.00" fill="#0969da">Builtin_Markup_String</text>
</a>
</g>
</g>
<!-- Builtin_String&#45;&gt;Builtin_Markup_String -->
<g id="edge10" class="edge">
<title>Builtin_String&#45;&gt;Builtin_Markup_String</title>
<path fill="none" stroke="black" d="M838.24,-288C855.06,-288 873.97,-288 892.6,-288"/>
<polygon fill="black" stroke="black" points="892.61,-291.5 902.61,-288 892.61,-284.5 892.61,-291.5"/>
</g>
<!-- Composite_Component -->
<g id="node20" class="node">
<title>Composite_Component</title>
<g id="a_node20"><a xlink:href="https://bmw-software-engineering.github.io/trlc/manual/ast.html#trlc.ast.Composite_Component" xlink:title="Component in a record or tuple.">
<text text-anchor="middle" x="554.5" y="-176.3" font-family="Times,serif" font-size="14.00" fill="#0969da">Composite_Component</text>
</a>
</g>
</g>
<!-- Typed_Entity&#45;&gt;Composite_Component -->
<g id="edge15" class="edge">
<title>Typed_Entity&#45;&gt;Composite_Component</title>
<path fill="none" stroke="black" d="M374.75,-138.66C401.75,-144.91 434.98,-152.59 465.44,-159.64"/>
<polygon fill="black" stroke="black" points="464.69,-163.05 475.22,-161.9 466.27,-156.23 464.69,-163.05"/>
</g>
<!-- Enumeration_Literal_Spec -->
<g id="node27" class="node">
<title>Enumeration_Literal_Spec</title>
<g id="a_node27"><a xlink:href="https://bmw-software-engineering.github.io/trlc/manual/ast.html#trlc.ast.Enumeration_Literal_Spec" xlink:title="Declared literal in an enumeration declaration.">
<text text-anchor="middle" x="554.5" y="-122.3" font-family="Times,serif" font-size="14.00" fill="#0969da">Enumeration_Literal_Spec</text>
</a>
</g>
</g>
<!-- Typed_Entity&#45;&gt;Enumeration_Literal_Spec -->
<g id="edge22" class="edge">
<title>Typed_Entity&#45;&gt;Enumeration_Literal_Spec</title>
<path fill="none" stroke="black" d="M374.75,-126C394.82,-126 418.35,-126 441.62,-126"/>
<polygon fill="black" stroke="black" points="441.92,-129.5 451.92,-126 441.92,-122.5 441.92,-129.5"/>
</g>
<!-- Quantified_Variable -->
<g id="node36" class="node">
<title>Quantified_Variable</title>
<g id="a_node36"><a xlink:href="https://bmw-software-engineering.github.io/trlc/manual/ast.html#trlc.ast.Quantified_Variable" xlink:title="Variable used in quantified expression.">
<text text-anchor="middle" x="554.5" y="-68.3" font-family="Times,serif" font-size="14.00" fill="#0969da">Quantified_Variable</text>
</a>
</g>
</g>
<!-- Typed_Entity&#45;&gt;Quantified_Variable -->
<g id="edge33" class="edge">
<title>Typed_Entity&#45;&gt;Quantified_Variable</title>
<path fill="none" stroke="black" d="M374.75,-113.34C401.99,-107.04 435.58,-99.27 466.27,-92.17"/>
<polygon fill="black" stroke="black" points="467.16,-95.56 476.11,-89.9 465.58,-88.74 467.16,-95.56"/>
</g>
<!-- Record_Object -->
<g id="node38" class="node">
<title>Record_Object</title>
<g id="a_node38"><a xlink:href="https://bmw-software-engineering.github.io/trlc/manual/ast.html#trlc.ast.Record_Object" xlink:title="A declared instance of a record type.">
<text text-anchor="middle" x="554.5" y="-14.3" font-family="Times,serif" font-size="14.00" fill="#0969da">Record_Object</text>
</a>
</g>
</g>
<!-- Typed_Entity&#45;&gt;Record_Object -->
<g id="edge35" class="edge">
<title>Typed_Entity&#45;&gt;Record_Object</title>
<path fill="none" stroke="black" d="M374.84,-117.67C389.17,-113.67 403.96,-107.75 416,-99 439.33,-82.04 428.55,-61.79 452,-45 461.73,-38.03 473.14,-32.86 484.73,-29.03"/>
<polygon fill="black" stroke="black" points="485.9,-32.33 494.48,-26.11 483.89,-25.63 485.9,-32.33"/>
</g>
<!-- Composite_Type -->
<g id="node22" class="node">
<title>Composite_Type</title>
<g id="a_node22"><a xlink:href="https://bmw-software-engineering.github.io/trlc/manual/ast.html#trlc.ast.Composite_Type" xlink:title="Abstract base for record and tuple types, as they share some&#10; &#160;&#160;&#160;&#160;&#160;&#160;functionality.">
<text text-anchor="middle" x="780" y="-230.3" font-family="Times,serif" font-size="14.00" fill="#0969da">Composite_Type</text>
</a>
</g>
</g>
<!-- Record_Type -->
<g id="node40" class="node">
<title>Record_Type</title>
<g id="a_node40"><a xlink:href="https://bmw-software-engineering.github.io/trlc/manual/ast.html#trlc.ast.Record_Type" xlink:title="A user&#45;defined record type.">
<text text-anchor="middle" x="992.5" y="-230.3" font-family="Times,serif" font-size="14.00" fill="#0969da">Record_Type</text>
</a>
</g>
</g>
<!-- Composite_Type&#45;&gt;Record_Type -->
<g id="edge37" class="edge">
<title>Composite_Type&#45;&gt;Record_Type</title>
<path fill="none" stroke="black" d="M847.03,-234C872.88,-234 902.43,-234 928.03,-234"/>
<polygon fill="black" stroke="black" points="928.37,-237.5 938.37,-234 928.37,-230.5 928.37,-237.5"/>
</g>
<!-- Tuple_Type -->
<g id="node45" class="node">
<title>Tuple_Type</title>
<g id="a_node45"><a xlink:href="https://bmw-software-engineering.github.io/trlc/manual/ast.html#trlc.ast.Tuple_Type" xlink:title="A user&#45;defined tuple type.">
<text text-anchor="middle" x="992.5" y="-176.3" font-family="Times,serif" font-size="14.00" fill="#0969da">Tuple_Type</text>
</a>
</g>
</g>
<!-- Composite_Type&#45;&gt;Tuple_Type -->
<g id="edge42" class="edge">
<title>Composite_Type&#45;&gt;Tuple_Type</title>
<path fill="none" stroke="black" d="M847.03,-217.06C874.72,-209.96 906.63,-201.77 933.41,-194.9"/>
<polygon fill="black" stroke="black" points="934.59,-198.21 943.41,-192.34 932.85,-191.43 934.59,-198.21"/>
</g>
<!-- Concrete_Type&#45;&gt;Composite_Type -->
<g id="edge16" class="edge">
<title>Concrete_Type&#45;&gt;Composite_Type</title>
<path fill="none" stroke="black" d="M615.69,-234C642.4,-234 674.15,-234 702.52,-234"/>
<polygon fill="black" stroke="black" points="702.81,-237.5 712.81,-234 702.81,-230.5 702.81,-237.5"/>
</g>
<!-- Enumeration_Type -->
<g id="node28" class="node">
<title>Enumeration_Type</title>
<g id="a_node28"><a xlink:href="https://bmw-software-engineering.github.io/trlc/manual/ast.html#trlc.ast.Enumeration_Type" xlink:title="User&#45;defined enumeration types.">
<text text-anchor="middle" x="780" y="-176.3" font-family="Times,serif" font-size="14.00" fill="#0969da">Enumeration_Type</text>
</a>
</g>
</g>
<!-- Concrete_Type&#45;&gt;Enumeration_Type -->
<g id="edge23" class="edge">
<title>Concrete_Type&#45;&gt;Enumeration_Type</title>
<path fill="none" stroke="black" d="M615.69,-219.46C639.88,-213.61 668.2,-206.77 694.4,-200.44"/>
<polygon fill="black" stroke="black" points="695.42,-203.79 704.32,-198.04 693.78,-196.99 695.42,-203.79"/>
</g>
</g>
</svg>
