<?xml version="1.0" encoding="UTF-8" standalone="no"?>
<!DOCTYPE svg PUBLIC "-//W3C//DTD SVG 1.1//EN"
 "http://www.w3.org/Graphics/SVG/1.1/DTD/svg11.dtd">
<!-- Generated by graphviz version 2.43.0 (0)
 -->
<!-- Title: G Pages: 1 -->
<svg width="461pt" height="332pt"
 viewBox="0.00 0.00 461.09 332.00" xmlns="http://www.w3.org/2000/svg" xmlns:xlink="http://www.w3.org/1999/xlink">
<g id="graph0" class="graph" transform="scale(1 1) rotate(0) translate(4 328)">
<title>G</title>
<polygon fill="white" stroke="transparent" points="-4,4 -4,-328 457.09,-328 457.09,4 -4,4"/>
<!-- start -->
<g id="node1" class="node">
<title>start</title>
<ellipse fill="none" stroke="black" cx="136.89" cy="-306" rx="33.29" ry="18"/>
<text text-anchor="middle" x="136.89" y="-302.3" font-family="Times,serif" font-size="14.00">start</text>
</g>
<!-- normal_error_1 -->
<g id="node2" class="node">
<title>normal_error_1</title>
<ellipse fill="none" stroke="black" cx="81.89" cy="-90" rx="81.79" ry="18"/>
<text text-anchor="middle" x="81.89" y="-86.3" font-family="Times,serif" font-size="14.00">normal_error_1</text>
</g>
<!-- start&#45;&gt;normal_error_1 -->
<g id="edge2" class="edge">
<title>start&#45;&gt;normal_error_1</title>
<path fill="none" stroke="black" d="M129.97,-288.33C120.42,-264.65 103.31,-219.75 93.89,-180 89.05,-159.55 85.98,-135.96 84.16,-118.21"/>
<polygon fill="black" stroke="black" points="87.64,-117.87 83.2,-108.25 80.67,-118.53 87.64,-117.87"/>
</g>
<!-- fatal_error_1 -->
<g id="node3" class="node">
<title>fatal_error_1</title>
<ellipse fill="none" stroke="black" cx="198.89" cy="-234" rx="70.39" ry="18"/>
<text text-anchor="middle" x="198.89" y="-230.3" font-family="Times,serif" font-size="14.00">fatal_error_1</text>
</g>
<!-- start&#45;&gt;fatal_error_1 -->
<g id="edge1" class="edge">
<title>start&#45;&gt;fatal_error_1</title>
<path fill="none" stroke="black" d="M150.65,-289.46C158.42,-280.69 168.31,-269.53 177.11,-259.6"/>
<polygon fill="black" stroke="black" points="179.86,-261.77 183.87,-251.96 174.62,-257.13 179.86,-261.77"/>
</g>
<!-- end -->
<g id="node7" class="node">
<title>end</title>
<ellipse fill="none" stroke="black" cx="198.89" cy="-18" rx="27.9" ry="18"/>
<text text-anchor="middle" x="198.89" y="-14.3" font-family="Times,serif" font-size="14.00">end</text>
</g>
<!-- normal_error_1&#45;&gt;end -->
<g id="edge6" class="edge">
<title>normal_error_1&#45;&gt;end</title>
<path fill="none" stroke="black" d="M108.73,-72.94C127.17,-61.91 151.61,-47.29 170.4,-36.05"/>
<polygon fill="black" stroke="black" points="172.33,-38.97 179.11,-30.84 168.73,-32.97 172.33,-38.97"/>
</g>
<!-- normal_warning_1 -->
<g id="node4" class="node">
<title>normal_warning_1</title>
<ellipse fill="none" stroke="black" cx="198.89" cy="-162" rx="96.38" ry="18"/>
<text text-anchor="middle" x="198.89" y="-158.3" font-family="Times,serif" font-size="14.00">normal_warning_1</text>
</g>
<!-- fatal_error_1&#45;&gt;normal_warning_1 -->
<g id="edge3" class="edge">
<title>fatal_error_1&#45;&gt;normal_warning_1</title>
<path fill="none" stroke="black" d="M198.89,-215.7C198.89,-207.98 198.89,-198.71 198.89,-190.11"/>
<polygon fill="black" stroke="black" points="202.39,-190.1 198.89,-180.1 195.39,-190.1 202.39,-190.1"/>
</g>
<!-- fatal_error_2 -->
<g id="node5" class="node">
<title>fatal_error_2</title>
<ellipse fill="none" stroke="black" cx="382.89" cy="-162" rx="70.39" ry="18"/>
<text text-anchor="middle" x="382.89" y="-158.3" font-family="Times,serif" font-size="14.00">fatal_error_2</text>
</g>
<!-- fatal_error_1&#45;&gt;fatal_error_2 -->
<g id="edge4" class="edge">
<title>fatal_error_1&#45;&gt;fatal_error_2</title>
<path fill="none" stroke="black" d="M236.57,-218.67C265.22,-207.77 304.83,-192.7 335.61,-180.99"/>
<polygon fill="black" stroke="black" points="337.16,-184.14 345.26,-177.32 334.67,-177.6 337.16,-184.14"/>
</g>
<!-- normal_warning_1&#45;&gt;end -->
<g id="edge7" class="edge">
<title>normal_warning_1&#45;&gt;end</title>
<path fill="none" stroke="black" d="M198.89,-143.87C198.89,-119.67 198.89,-75.21 198.89,-46.39"/>
<polygon fill="black" stroke="black" points="202.39,-46.19 198.89,-36.19 195.39,-46.19 202.39,-46.19"/>
</g>
<!-- normal_error_2 -->
<g id="node6" class="node">
<title>normal_error_2</title>
<ellipse fill="none" stroke="black" cx="345.89" cy="-90" rx="81.79" ry="18"/>
<text text-anchor="middle" x="345.89" y="-86.3" font-family="Times,serif" font-size="14.00">normal_error_2</text>
</g>
<!-- fatal_error_2&#45;&gt;normal_error_2 -->
<g id="edge5" class="edge">
<title>fatal_error_2&#45;&gt;normal_error_2</title>
<path fill="none" stroke="black" d="M373.94,-144.05C369.68,-136.01 364.5,-126.2 359.75,-117.23"/>
<polygon fill="black" stroke="black" points="362.79,-115.48 355.02,-108.28 356.6,-118.75 362.79,-115.48"/>
</g>
<!-- normal_error_2&#45;&gt;end -->
<g id="edge8" class="edge">
<title>normal_error_2&#45;&gt;end</title>
<path fill="none" stroke="black" d="M313.27,-73.46C288.48,-61.66 254.59,-45.52 230.14,-33.88"/>
<polygon fill="black" stroke="black" points="231.48,-30.64 220.95,-29.5 228.47,-36.96 231.48,-30.64"/>
</g>
</g>
</svg>
